<svg id="Слой_1" data-name="Слой 1" xmlns="http://www.w3.org/2000/svg" viewBox="0 0 31.05 30.55"><defs><style>.cls-1{fill:#95e87e;}.cls-2{fill:#ffa683;}.cls-3{fill:#f47a7a;}.cls-4{fill:#f4e487;}</style></defs><title>logo-circle</title><path class="cls-1" d="M24,17.46a9.46,9.46,0,0,1-7.56,9.61c3.94-2.36,7.61-7,5.12-11.75a4.24,4.24,0,0,0-3.22-2.42,2.72,2.72,0,0,0-3.15,2c-.79-1.7.92-3.34,2.56-3.54,2.49-.26,4.66,1.58,5.63,3.72A7.14,7.14,0,0,1,24,17.46Z"/><path class="cls-2" d="M9.11,9.73c.8-2.41,2.7-4.12,4.54-5.69-2.89.45-5.25,3.15-6.23,5.9a7.48,7.48,0,0,0,1.44,7.61,5.81,5.81,0,0,0,3.87,1.84A3.24,3.24,0,0,0,16,17.1a1.78,1.78,0,0,0-.39-1.51,2.3,2.3,0,0,1-1.44,1.9,3.48,3.48,0,0,1-2.69-.13,5.82,5.82,0,0,1-2.78-5.5A7.27,7.27,0,0,1,9.11,9.73Z"/><path class="cls-3" d="M17.26,6.93a8.69,8.69,0,0,1,5.65,1.31c2,1.37,4,3.41,4.06,5.9-2-3.15-5.25-6-9.25-5.51a5.42,5.42,0,0,0-3.87,2.17,3.61,3.61,0,0,0-.33,3.54A2.15,2.15,0,0,0,15,15.45a1.87,1.87,0,0,1-2.17-.13C10,13,12.14,8.89,14.92,7.65A7.16,7.16,0,0,1,17.26,6.93Z"/><path class="cls-4" d="M10.11,21.84c-2.5-.74-4.27-2.64-5.91-4.55C4.66,19.85,6.76,21.82,9,23a7.66,7.66,0,0,0,7.94-.33,5.66,5.66,0,0,0,2.69-5.12,3.15,3.15,0,0,0-2.36-2.82,1.74,1.74,0,0,0-1.57.33c1.57,0,2.36,1.58,2.23,3-.2,2.69-3.15,4.27-5.65,4.17A7,7,0,0,1,10.11,21.84Z"/></svg>